<svg width="50" height="51" viewBox="0 0 50 51" fill="none" xmlns="http://www.w3.org/2000/svg">
<path d="M21.7279 20.1454H19.8529C19.8032 20.1454 19.7555 20.1676 19.7203 20.2071C19.6852 20.2465 19.6654 20.3001 19.6654 20.3559V28.3563C19.6654 28.4122 19.6852 28.4657 19.7203 28.5052C19.7555 28.5447 19.8032 28.5669 19.8529 28.5669H21.7279C21.7776 28.5669 21.8253 28.5447 21.8605 28.5052C21.8957 28.4657 21.9154 28.4122 21.9154 28.3563V20.3559C21.9154 20.3001 21.8957 20.2465 21.8605 20.2071C21.8253 20.1676 21.7776 20.1454 21.7279 20.1454ZM21.5404 28.1458H20.0404V20.5665H21.5404V28.1458Z" stroke="#1E2742" stroke-width="0.645774"/>
<path d="M30.3535 20.1453H25.8535L26.2885 17.6988C26.3443 17.3899 26.3098 17.069 26.1902 16.7837C26.0707 16.4985 25.8724 16.2642 25.6248 16.1156L25.3698 15.9598C25.3259 15.934 25.2747 15.9283 25.2271 15.944C25.1796 15.9597 25.1393 15.9956 25.1148 16.044L23.0523 20.2547C23.0374 20.2858 23.0296 20.3205 23.0298 20.3558V27.5141C23.0298 27.6534 23.0544 27.7913 23.1022 27.9198C23.15 28.0484 23.2201 28.165 23.3083 28.2629C23.3966 28.3608 23.5013 28.4381 23.6163 28.4903C23.7314 28.5424 23.8545 28.5684 23.9785 28.5667H28.5873C29.0422 28.568 29.4884 28.4257 29.8749 28.1562C30.2614 27.8868 30.5727 27.5009 30.7735 27.0425L32.041 23.8086C32.0467 23.7809 32.0467 23.7521 32.041 23.7244V22.0401C32.04 21.5379 31.8619 21.0566 31.5457 20.7015C31.2294 20.3464 30.8008 20.1464 30.3535 20.1453ZM31.666 23.6823L30.4323 26.8825C30.2596 27.2646 29.9955 27.5852 29.6696 27.8084C29.3437 28.0315 28.969 28.1483 28.5873 28.1457H23.9785C23.8294 28.1457 23.6863 28.0791 23.5808 27.9607C23.4753 27.8422 23.416 27.6816 23.416 27.5141V20.4105L25.366 16.4314L25.456 16.4861C25.633 16.5928 25.7748 16.7604 25.8605 16.9643C25.9463 17.1682 25.9714 17.3976 25.9323 17.6188L25.4523 20.3137C25.4471 20.3445 25.4478 20.3761 25.4543 20.4066C25.4607 20.4371 25.4728 20.4657 25.4898 20.4905C25.5081 20.5139 25.5306 20.5328 25.5558 20.5458C25.581 20.5589 25.6083 20.5659 25.636 20.5663H30.3535C30.7016 20.5663 31.0355 20.7216 31.2816 20.998C31.5278 21.2744 31.666 21.6492 31.666 22.0401V23.6823Z" stroke="#1E2742" stroke-width="0.645774"/>
<path d="M32.993 13.4082H16.838C15.798 13.4093 14.8009 13.8737 14.0655 14.6995C13.3301 15.5252 12.9165 16.6449 12.9155 17.8126V27.9521C12.9165 29.1199 13.3301 30.2395 14.0655 31.0653C14.8009 31.891 15.798 32.3554 16.838 32.3565H21.263L24.7693 37.3294C24.7868 37.354 24.8091 37.3739 24.8344 37.3875C24.8597 37.4011 24.8875 37.4082 24.9155 37.4082C24.9436 37.4082 24.9713 37.4011 24.9966 37.3875C25.0219 37.3739 25.0442 37.354 25.0618 37.3294L28.568 32.3565H32.993C34.033 32.3554 35.0302 31.891 35.7656 31.0653C36.501 30.2395 36.9145 29.1199 36.9155 27.9521V17.8126C36.9145 16.6449 36.501 15.5252 35.7656 14.6995C35.0302 13.8737 34.033 13.4093 32.993 13.4082ZM36.5405 27.9521C36.5385 29.0079 36.1642 30.0198 35.4993 30.7663C34.8344 31.5128 33.9333 31.9332 32.993 31.9355H28.493C28.4648 31.9353 28.4369 31.9424 28.4116 31.9563C28.3862 31.9702 28.364 31.9904 28.3468 32.0155L24.9155 36.8578L21.4993 32.0155C21.482 31.9904 21.4598 31.9702 21.4345 31.9563C21.4091 31.9424 21.3812 31.9353 21.353 31.9355H16.853C16.3862 31.9366 15.9237 31.8344 15.492 31.6348C15.0603 31.4352 14.6679 31.1421 14.3371 30.7723C14.0063 30.4024 13.7436 29.9629 13.564 29.479C13.3844 28.9952 13.2915 28.4763 13.2905 27.9521V17.8126C13.2925 16.7569 13.6669 15.745 14.3318 14.9984C14.9966 14.2519 15.8978 13.8315 16.838 13.8293H32.993C33.9333 13.8315 34.8344 14.2519 35.4993 14.9984C36.1642 15.745 36.5385 16.7569 36.5405 17.8126V27.9521Z" stroke="#1E2742" stroke-width="0.645774"/>
</svg>
