<svg width="50" height="51" viewBox="0 0 50 51" fill="none" xmlns="http://www.w3.org/2000/svg">
<path d="M36.9156 27.2917C36.9175 26.4334 36.688 25.5883 36.248 24.8334C35.8081 24.0786 35.1716 23.438 34.3967 22.9701C33.6218 22.5021 32.7331 22.2217 31.8116 22.1543C30.8901 22.0869 29.965 22.2348 29.1208 22.5844C28.2766 22.934 27.5401 23.4742 26.9783 24.1559C26.4165 24.8375 26.0474 25.6388 25.9046 26.4868C25.7618 27.3348 25.8499 28.2025 26.1607 29.0108C26.4716 29.8191 26.9954 30.5423 27.6844 31.1145V37.5774L31.3769 35.9552L35.0694 37.5774V31.1145C35.6497 30.634 36.1142 30.045 36.4324 29.3862C36.7506 28.7275 36.9152 28.0137 36.9156 27.2917ZM33.2231 34.8688L31.3769 34.0574L29.5306 34.8688V32.1345C30.7238 32.5346 32.03 32.5346 33.2231 32.1345V34.8688ZM31.3769 30.7202C30.6466 30.7202 29.9327 30.5192 29.3254 30.1424C28.7182 29.7657 28.2449 29.2302 27.9655 28.6037C27.686 27.9772 27.6129 27.2879 27.7553 26.6228C27.8978 25.9577 28.2495 25.3468 28.7659 24.8673C29.2823 24.3878 29.9402 24.0613 30.6565 23.929C31.3728 23.7967 32.1152 23.8646 32.7899 24.1241C33.4647 24.3836 34.0414 24.823 34.4471 25.3869C34.8528 25.9507 35.0694 26.6136 35.0694 27.2917C35.0683 28.2007 34.6789 29.0721 33.9867 29.7149C33.2944 30.3577 32.3559 30.7192 31.3769 30.7202Z" fill="#1E2742"/>
<path d="M23.9934 23.863H17.5315V25.5773H23.9934V23.863Z" fill="#1E2742"/>
<path d="M26.7628 18.7202H17.5315V20.4345H26.7628V18.7202Z" fill="#1E2742"/>
<path d="M14.7618 37.5774C14.2723 37.5769 13.803 37.3961 13.4568 37.0747C13.1107 36.7534 12.916 36.3176 12.9155 35.8631V15.2917C12.916 14.8372 13.1107 14.4014 13.4568 14.08C13.803 13.7586 14.2723 13.5779 14.7618 13.5774H29.5318C30.0213 13.5779 30.4906 13.7586 30.8367 14.08C31.1829 14.4014 31.3776 14.8372 31.3781 15.2917V18.7202H29.5318V15.2917H14.7618V35.8631H23.993V37.5774H14.7618Z" fill="#1E2742"/>
</svg>
