<svg width="50" height="50" viewBox="0 0 50 50" fill="none" xmlns="http://www.w3.org/2000/svg">
<path d="M36.9153 27.4744C36.8354 27.8539 36.5858 28.1191 36.3158 28.3738C36.0262 28.6469 35.7512 28.9355 35.4557 29.2022C35.295 29.3471 35.2612 29.5064 35.2971 29.7053C35.3857 30.196 35.4683 30.6878 35.5529 31.1792C35.6735 31.8797 35.2935 32.4276 34.6186 32.5193C34.3676 32.5535 34.141 32.4661 33.9247 32.3516C33.483 32.1179 33.0401 31.8861 32.603 31.6441C32.5343 31.5999 32.4545 31.5763 32.3729 31.5758C32.2913 31.5753 32.2112 31.598 32.142 31.6413C31.7049 31.8834 31.262 32.1152 30.8198 32.3481C30.2568 32.6445 29.8743 32.5933 29.4252 32.146C29.3103 32.0316 29.2752 32.0882 29.2314 32.1906C29.1603 32.3566 29.1789 32.5287 29.2073 32.6978C29.3491 33.5431 29.4997 34.387 29.6379 35.2329C29.7301 35.7972 29.5498 36.2711 29.0947 36.6173C28.6451 36.9592 28.1423 37.0097 27.6385 36.7556C26.8578 36.3618 26.0853 35.951 25.3174 35.5327C25.0431 35.3833 24.8039 35.3746 24.5255 35.5282C23.7941 35.9317 23.0502 36.3128 22.3118 36.7041C21.7828 36.9844 21.2549 36.9947 20.7651 36.6387C20.2727 36.2809 20.0924 35.7824 20.1998 35.1773C20.3455 34.3564 20.4818 33.5339 20.6186 32.7114C20.6467 32.5425 20.6695 32.3695 20.6044 32.2031C20.5626 32.0964 20.5238 32.0221 20.397 32.1519C19.9743 32.5835 19.5743 32.6423 19.0427 32.3652C18.5927 32.1305 18.1433 31.8942 17.6995 31.6482C17.6277 31.602 17.5441 31.5772 17.4587 31.5769C17.3732 31.5765 17.2894 31.6005 17.2172 31.646C16.7598 31.8999 16.2993 32.1488 15.8322 32.3843C15.1303 32.7381 14.322 32.3256 14.2578 31.5896C14.2282 31.25 14.3247 30.9244 14.3749 30.594C14.4217 30.2859 14.478 29.9792 14.5333 29.6725C14.5527 29.5891 14.5487 29.502 14.5218 29.4208C14.4948 29.3396 14.446 29.2673 14.3806 29.212C14.0105 28.865 13.6527 28.5048 13.291 28.1489C12.9715 27.8345 12.8317 27.464 12.9669 27.0223C13.0982 26.593 13.4009 26.3435 13.8389 26.2707C14.3237 26.19 14.81 26.1151 15.2982 26.0605C15.5666 26.0305 15.7348 25.9241 15.8459 25.669C16.0422 25.2189 16.2696 24.7823 16.4867 24.3413C16.6831 23.9424 16.9985 23.7191 17.4511 23.7159C17.9052 23.7128 18.2223 23.9377 18.4209 24.3331C18.6555 24.8001 18.8883 25.2684 19.1051 25.7437C19.1373 25.8267 19.1924 25.8989 19.2641 25.9518C19.3358 26.0046 19.4211 26.036 19.5101 26.0423C19.9742 26.1037 20.4358 26.1834 20.9003 26.2407C21.4599 26.3098 21.858 26.5586 21.9747 27.1449C22.0021 27.2822 22.0796 27.2809 22.1806 27.2299C22.2997 27.1685 22.3949 27.069 22.4509 26.9473C22.7601 26.3169 23.067 25.6853 23.3774 25.0555C23.4337 24.9412 23.4446 24.8789 23.2819 24.8579C22.8619 24.8032 22.4592 24.6564 22.1027 24.4281C22.0277 24.3804 21.9573 24.3437 21.864 24.3884C21.5807 24.524 21.2763 24.5359 20.97 24.527C20.6269 24.5172 20.2828 24.5544 19.9407 24.4979C19.3531 24.401 18.9103 23.9326 18.9056 23.3417C18.8936 21.8518 18.8936 20.3617 18.9056 18.8715C18.9111 18.2308 19.4089 17.7327 20.0734 17.6915C20.5091 17.6644 20.9482 17.6802 21.3854 17.6899C21.5102 17.6975 21.633 17.7251 21.749 17.7717C22.0916 17.8965 22.0928 17.9028 22.3146 17.6086C22.7897 16.9782 23.3504 16.443 24.0374 16.0464C24.1293 15.987 24.2263 15.9359 24.3272 15.8935C25.1362 15.6011 25.4625 14.9374 25.5845 14.1691C25.683 13.5494 25.9643 13.1281 26.5543 12.9155H27.2106C27.921 13.1825 28.1733 13.7284 28.1523 14.4462C28.1216 15.485 27.9397 16.4914 27.5077 17.4429C27.4277 17.6191 27.4373 17.6889 27.6577 17.6843C28.1886 17.6733 28.7201 17.6762 29.2512 17.6837C30.0915 17.6957 30.6327 18.3346 30.4961 19.1568C30.4744 19.287 30.4898 19.3507 30.6163 19.4079C31.0839 19.6193 31.3231 20.0071 31.3253 20.5023C31.3275 20.9989 31.0844 21.3844 30.6226 21.6019C30.4999 21.6597 30.4704 21.7201 30.4979 21.8525C30.593 22.3106 30.4528 22.7009 30.1089 23.0125C30.0172 23.0955 30.0093 23.165 30.0437 23.2757C30.3173 24.1553 29.7635 24.9088 28.8419 24.9127C28.0921 24.9159 27.3422 24.9156 26.5923 24.9117C26.4409 24.9108 26.3917 24.9387 26.4696 25.0946C26.7764 25.7086 27.0742 26.3271 27.3761 26.9434C27.4334 27.0734 27.5372 27.1774 27.6672 27.2351C27.7587 27.2738 27.828 27.2841 27.854 27.1535C27.9719 26.5593 28.3723 26.304 28.9442 26.2388C29.4012 26.1866 29.8551 26.1065 30.3115 26.0476C30.4044 26.0401 30.4932 26.0062 30.5674 25.9499C30.6416 25.8936 30.6982 25.8173 30.7304 25.73C30.9328 25.2825 31.1579 24.8452 31.3706 24.4023C31.5725 23.9818 31.8812 23.7158 32.3689 23.7158C32.854 23.7158 33.1682 23.9711 33.37 24.3961C33.5874 24.854 33.8182 25.3057 34.0346 25.7641C34.1079 25.9194 34.208 26.0101 34.3832 26.0325C34.7699 26.0824 35.1537 26.1583 35.5414 26.1963C36.2004 26.2609 36.7573 26.448 36.9155 27.1929L36.9153 27.4744ZM21.0311 35.3759C21.0235 35.7726 21.2053 36.0026 21.5043 36.0585C21.6798 36.0912 21.8239 36.0066 21.9682 35.9304C22.6933 35.5476 23.4211 35.1706 24.1391 34.7757C24.6653 34.4862 25.1718 34.4896 25.6967 34.7774C26.4291 35.1788 27.1702 35.5646 27.9091 35.9541C28.2763 36.1476 28.6515 36.0387 28.7696 35.7038C28.8283 35.5374 28.8013 35.3643 28.7727 35.1946C28.6378 34.3957 28.5138 33.5949 28.3622 32.7992C28.2472 32.1958 28.4347 31.7186 28.8673 31.3023C29.4746 30.7178 30.0657 30.1163 30.6689 29.5276C30.7572 29.4493 30.82 29.3464 30.849 29.2321C30.8781 29.1178 30.8721 28.9974 30.8318 28.8866C30.7578 28.6535 30.5723 28.5496 30.3371 28.5163C29.5727 28.407 28.8113 28.2695 28.0439 28.1899C27.2847 28.1113 26.7771 27.7598 26.4714 27.0525C26.1656 26.3452 25.7973 25.6635 25.4617 24.9678C25.3482 24.7325 25.198 24.5712 24.912 24.5719C24.626 24.5725 24.4784 24.7378 24.365 24.9721C23.9913 25.7444 23.6112 26.5138 23.2341 27.2842C22.9883 27.7866 22.5866 28.0652 22.0328 28.1434C21.2065 28.26 20.3825 28.3927 19.5556 28.5059C19.2925 28.5418 19.0829 28.6391 18.9953 28.8951C18.9015 29.1687 19.0103 29.3863 19.2149 29.5841C19.8377 30.1863 20.4503 30.7991 21.0652 31.4094C21.2332 31.5689 21.3596 31.7669 21.4336 31.9862C21.5075 32.2056 21.5267 32.4396 21.4896 32.6681C21.4497 32.9614 21.3895 33.2516 21.3399 33.5435C21.2318 34.181 21.1249 34.8183 21.0311 35.3759ZM27.4266 24.054C27.8955 24.054 28.364 24.0564 28.8326 24.0531C29.1196 24.0511 29.26 23.9337 29.2647 23.7053C29.2697 23.4653 29.1209 23.3293 28.8358 23.323C28.6015 23.3179 28.3669 23.3238 28.1328 23.3191C27.9353 23.3152 27.7869 23.2277 27.7151 23.0375C27.6056 22.7476 27.8129 22.4793 28.1701 22.467C28.5213 22.4549 28.8731 22.4658 29.2246 22.4614C29.5149 22.4577 29.6755 22.3256 29.6764 22.1C29.6772 21.8849 29.4961 21.7343 29.2247 21.7298C28.9905 21.726 28.7559 21.7357 28.5218 21.7245C28.2672 21.712 28.0962 21.5432 28.0894 21.3188C28.0825 21.0919 28.2383 20.9184 28.4904 20.8801C28.5679 20.8709 28.6461 20.8674 28.7241 20.8696C29.1617 20.8684 29.5991 20.8681 30.0364 20.8686C30.1643 20.8686 30.2897 20.8573 30.3777 20.75C30.4241 20.7017 30.4553 20.641 30.4677 20.5753C30.48 20.5096 30.473 20.4417 30.4474 20.38C30.4203 20.3058 30.3701 20.2424 30.3041 20.1989C30.2382 20.1555 30.16 20.1343 30.0811 20.1387C29.6046 20.1358 29.1281 20.1376 28.6516 20.1355C28.289 20.134 28.0909 19.9843 28.0895 19.7146C28.0881 19.4377 28.2952 19.2787 28.6629 19.2758C28.8737 19.2741 29.0846 19.2738 29.2955 19.2735C29.3543 19.2777 29.4132 19.2666 29.4664 19.2411C29.5196 19.2157 29.5653 19.177 29.5989 19.1286C29.641 19.0767 29.6671 19.0135 29.6738 18.947C29.6806 18.8805 29.6678 18.8135 29.637 18.7541C29.6048 18.6868 29.5531 18.6308 29.4885 18.5933C29.424 18.5558 29.3496 18.5386 29.2752 18.544C28.6034 18.5448 27.9316 18.5463 27.2598 18.5417C26.5881 18.5371 26.2694 18.0247 26.5691 17.4278C26.783 17.0113 26.953 16.5737 27.0762 16.1221C27.2442 15.4881 27.3154 14.8325 27.2874 14.1773C27.2764 13.9151 27.1217 13.7404 26.9015 13.7266C26.6739 13.7123 26.5197 13.8512 26.4645 14.1213C26.4504 14.19 26.4401 14.2594 26.4258 14.3281C26.2086 15.3719 25.7477 16.224 24.6957 16.6642C24.0409 16.9382 23.5431 17.4313 23.1021 17.977C22.9585 18.1716 22.7961 18.3517 22.6173 18.5147C22.5867 18.5376 22.5623 18.5678 22.5462 18.6025C22.5301 18.6372 22.5229 18.6753 22.5253 18.7135C22.5327 20.2109 22.5368 21.7082 22.5378 23.2056C22.5385 23.7648 22.5446 23.7771 23.0853 23.947C23.1746 23.975 23.2657 23.9973 23.3579 24.0137C23.6694 24.0692 23.9596 24.0742 24.2535 23.887C24.6317 23.6463 25.0792 23.6137 25.4619 23.8366C25.8194 24.0449 26.1774 24.0624 26.5596 24.0551C26.8484 24.0501 27.1374 24.0545 27.4265 24.054H27.4266ZM15.0958 31.4229C15.0968 31.6298 15.2602 31.7229 15.4584 31.6207C15.9371 31.3736 16.413 31.1211 16.8861 30.8632C17.0583 30.761 17.2548 30.707 17.4551 30.7069C17.6554 30.7068 17.852 30.7606 18.0242 30.8627C18.4766 31.1095 18.9332 31.3485 19.3889 31.5891C19.5134 31.6549 19.6521 31.7447 19.7605 31.5802C19.8558 31.4354 19.772 31.3181 19.6622 31.2119C19.3026 30.8652 18.9448 30.5166 18.5888 30.166C18.2162 29.7978 18.0275 29.36 18.1328 28.8319C18.2697 28.1461 18.7392 27.7495 19.4927 27.6504C19.9877 27.5852 20.4811 27.5083 20.9746 27.433C21.0396 27.4231 21.1273 27.4237 21.1366 27.3296C21.1398 27.286 21.1279 27.2427 21.1029 27.2068C21.0778 27.171 21.0412 27.1449 20.9991 27.1329C20.9255 27.1066 20.8491 27.0891 20.7714 27.0806C20.3083 27.0119 19.8463 26.9359 19.3814 26.8818C18.9059 26.8265 18.5684 26.6039 18.3661 26.1634C18.1546 25.7027 17.924 25.2508 17.701 24.7954C17.6495 24.6903 17.6052 24.5777 17.4566 24.5776C17.308 24.5775 17.2623 24.6884 17.2106 24.7938C16.9837 25.2559 16.7506 25.7153 16.5332 26.182C16.3367 26.6036 16.0122 26.8221 15.555 26.8798C15.052 26.9433 14.5516 27.0268 14.0499 27.1006C13.9387 27.1169 13.8298 27.1365 13.7858 27.2597C13.737 27.3965 13.8276 27.4793 13.9115 27.5624C14.2939 27.9417 14.6783 28.3192 15.0592 28.7C15.2005 28.8309 15.3046 28.9967 15.3611 29.1806C15.4176 29.3645 15.4244 29.5601 15.381 29.7475C15.3622 29.8391 15.3497 29.9319 15.3341 30.0241C15.2545 30.4928 15.1745 30.961 15.0958 31.4229ZM36.0524 27.3077C36.0365 27.1806 35.9445 27.1267 35.8156 27.1075C35.3064 27.0326 34.7987 26.9453 34.288 26.8818C33.8323 26.8254 33.5012 26.62 33.3034 26.1953C33.0827 25.7217 32.8443 25.2564 32.6133 24.7876C32.561 24.6815 32.5111 24.574 32.3629 24.5786C32.2269 24.5828 32.1825 24.6835 32.1341 24.7826C31.9085 25.2453 31.6754 25.7045 31.4589 26.1716C31.2595 26.6023 30.9264 26.8217 30.462 26.8811C29.9515 26.9464 29.4436 27.0309 28.9342 27.1058C28.8067 27.1245 28.6908 27.1765 28.6952 27.3144C28.6994 27.4493 28.8431 27.4355 28.9347 27.4501C29.2965 27.5083 29.6611 27.55 30.0231 27.6072C30.3682 27.6619 30.7241 27.6758 31.0358 27.8659C31.8334 28.3514 31.9634 29.4108 31.2963 30.1047C30.9233 30.4928 30.5291 30.8605 30.1423 31.2352C30.0352 31.339 29.9813 31.4561 30.0714 31.5874C30.1657 31.7247 30.2902 31.667 30.4049 31.6061C30.867 31.3612 31.3314 31.1203 31.7898 30.8685C32.179 30.6548 32.5586 30.6518 32.9485 30.866C33.4068 31.1178 33.8708 31.3594 34.3329 31.6045C34.4304 31.6563 34.5309 31.7113 34.6373 31.6261C34.7353 31.5477 34.7357 31.4472 34.715 31.3301C34.6217 30.8008 34.5456 30.2683 34.4462 29.7403C34.4048 29.5528 34.4131 29.3578 34.4702 29.1745C34.5273 28.9912 34.6314 28.826 34.772 28.6951C35.1529 28.3144 35.537 27.9368 35.9191 27.5573C35.9858 27.4918 36.0576 27.4277 36.0524 27.3077ZM21.7054 21.1222C21.7054 20.4279 21.7099 19.7334 21.7035 19.0392C21.7002 18.6758 21.5622 18.5467 21.2044 18.5448C20.8684 18.5429 20.5324 18.5418 20.1964 18.5454C19.8901 18.5487 19.7644 18.6663 19.7637 18.9693C19.7604 20.3893 19.7602 21.8092 19.7632 23.2291C19.7639 23.5412 19.8915 23.6629 20.2095 23.6676C20.522 23.6721 20.8346 23.6695 21.1471 23.6689C21.5772 23.668 21.7035 23.5445 21.7053 23.1117C21.7079 22.4487 21.7059 21.7857 21.7054 21.1223V21.1222Z" fill="#1E2742"/>
</svg>
