<svg width="50" height="51" viewBox="0 0 50 51" fill="none" xmlns="http://www.w3.org/2000/svg">
<path d="M16.8737 29.73C14.6692 29.73 12.9155 27.9763 12.9155 25.7717C12.9155 23.5671 14.6692 21.8135 16.8737 21.8135C19.0783 21.8135 20.832 23.5671 20.832 25.7717C20.832 27.9262 19.0783 29.73 16.8737 29.73ZM16.8737 23.2665C15.5209 23.2665 14.4186 24.3688 14.4186 25.7216C14.4186 27.0744 15.5209 28.1767 16.8737 28.1767C18.2266 28.1767 19.3289 27.0744 19.3289 25.7216C19.3289 24.4189 18.2266 23.2665 16.8737 23.2665Z" fill="#1E2742"/>
<path d="M32.9574 21.6631C30.7528 21.6631 28.9991 19.9094 28.9991 17.7048C28.9991 15.5002 30.7528 13.7466 32.9574 13.7466C35.1619 13.7466 36.9156 15.5002 36.9156 17.7048C36.9156 19.9094 35.1118 21.6631 32.9574 21.6631ZM32.9574 15.2497C31.6046 15.2497 30.5023 16.352 30.5023 17.7048C30.5023 19.0576 31.6046 20.1599 32.9574 20.1599C34.3102 20.1599 35.4125 19.0576 35.4125 17.7048C35.4125 16.352 34.3102 15.2497 32.9574 15.2497Z" fill="#1E2742"/>
<path d="M32.9574 37.7466C30.7528 37.7466 28.9991 35.9929 28.9991 33.7883C28.9991 31.5837 30.7528 29.8301 32.9574 29.8301C35.1619 29.8301 36.9156 31.5837 36.9156 33.7883C36.9156 35.9929 35.1118 37.7466 32.9574 37.7466ZM32.9574 31.3332C31.6046 31.3332 30.5023 32.4355 30.5023 33.7883C30.5023 35.1411 31.6046 36.2434 32.9574 36.2434C34.3102 36.2434 35.4125 35.1411 35.4125 33.7883C35.4125 32.4355 34.3102 31.3332 32.9574 31.3332Z" fill="#1E2742"/>
<path d="M29.6999 33.0867L19.3784 27.9259L20.0799 26.4729L30.4514 31.6336L29.6999 33.0867Z" fill="#1E2742"/>
<path d="M20.0799 25.0202L19.3784 23.6173L29.6999 18.4565L30.4514 19.8595L20.0799 25.0202Z" fill="#1E2742"/>
</svg>
